<svg width="227" height="27" viewBox="0 0 227 27" fill="none" xmlns="http://www.w3.org/2000/svg">
<path d="M13.4 11.96C15.64 12.2267 17.4133 12.9733 18.72 14.2C20.0533 15.4267 20.72 16.9467 20.72 18.76C20.72 20.1467 20.32 21.4 19.52 22.52C18.72 23.64 17.6133 24.5333 16.2 25.2C14.7867 25.84 13.2133 26.16 11.48 26.16C10.7333 26.16 9.88 26.12 8.92 26.04C8.54667 26.0133 8.08 25.9867 7.52 25.96C6.98667 25.9333 6.38667 25.92 5.72 25.92L2.8 25.96C2.26667 25.9867 1.54667 26 0.64 26C0.56 26 0.52 25.92 0.52 25.76C0.52 25.6 0.56 25.52 0.64 25.52C1.41333 25.52 2 25.4533 2.4 25.32C2.8 25.16 3.08 24.8933 3.24 24.52C3.42667 24.12 3.52 23.5333 3.52 22.76V4.24C3.52 3.12 3.33333 2.38667 2.96 2.04C2.58667 1.66667 1.82667 1.48 0.68 1.48C0.626667 1.48 0.6 1.4 0.6 1.24C0.6 1.08 0.626667 1 0.68 1L2.8 1.04C4.02667 1.09333 5 1.12 5.72 1.12C6.46667 1.12 7.24 1.08 8.04 1C8.30667 0.973332 8.70667 0.946665 9.24 0.919999C9.77333 0.893332 10.24 0.879999 10.64 0.879999C13.0667 0.879999 14.9467 1.32 16.28 2.2C17.6133 3.08 18.28 4.36 18.28 6.04C18.28 7.32 17.8533 8.48 17 9.52C16.1733 10.56 14.9733 11.3733 13.4 11.96ZM10.04 1.76C9.26667 1.76 8.73333 1.94667 8.44 2.32C8.14667 2.66667 8 3.33333 8 4.32V11.92L9.6 11.96C10.9867 11.96 12.0533 11.44 12.8 10.4C13.5467 9.36 13.92 8.02667 13.92 6.4C13.92 4.88 13.5867 3.73333 12.92 2.96C12.2533 2.16 11.2933 1.76 10.04 1.76ZM10.8 25.16C14.2933 25.16 16.04 23.3467 16.04 19.72C16.04 17.6667 15.5467 16.04 14.56 14.84C13.5733 13.64 12.08 13.04 10.08 13.04C9.30667 13.04 8.61333 13.0667 8 13.12V22.76C8 23.64 8.17333 24.2667 8.52 24.64C8.86667 24.9867 9.62667 25.16 10.8 25.16ZM36.6291 26.48C34.1491 26.48 31.9357 25.9067 29.9891 24.76C28.0691 23.5867 26.5757 22.0133 25.5091 20.04C24.4691 18.04 23.9491 15.8667 23.9491 13.52C23.9491 10.7733 24.6424 8.42667 26.0291 6.48C27.4157 4.50667 29.1891 3.02667 31.3491 2.04C33.5357 1.05333 35.7624 0.559999 38.0291 0.559999C40.5624 0.559999 42.7891 1.16 44.7091 2.36C46.6291 3.53333 48.0957 5.09333 49.1091 7.04C50.1491 8.98667 50.6691 11.0533 50.6691 13.24C50.6691 15.6667 50.0291 17.8933 48.7491 19.92C47.4691 21.9467 45.7491 23.5467 43.5891 24.72C41.4557 25.8933 39.1357 26.48 36.6291 26.48ZM37.9491 25.48C39.4424 25.48 40.7757 25.0533 41.9491 24.2C43.1491 23.32 44.0824 22.0533 44.7491 20.4C45.4157 18.72 45.7491 16.72 45.7491 14.4C45.7491 11.9467 45.3757 9.76 44.6291 7.84C43.8824 5.89333 42.8024 4.37333 41.3891 3.28C39.9757 2.18667 38.3224 1.64 36.4291 1.64C34.0024 1.64 32.1357 2.56 30.8291 4.4C29.5224 6.21333 28.8691 8.76 28.8691 12.04C28.8691 14.6267 29.2557 16.9467 30.0291 19C30.8291 21.0267 31.9091 22.6133 33.2691 23.76C34.6557 24.9067 36.2157 25.48 37.9491 25.48ZM66.4541 26.48C63.9741 26.48 61.7607 25.9067 59.8141 24.76C57.8941 23.5867 56.4007 22.0133 55.3341 20.04C54.2941 18.04 53.7741 15.8667 53.7741 13.52C53.7741 10.7733 54.4674 8.42667 55.8541 6.48C57.2407 4.50667 59.0141 3.02667 61.1741 2.04C63.3607 1.05333 65.5874 0.559999 67.8541 0.559999C70.3874 0.559999 72.6141 1.16 74.5341 2.36C76.4541 3.53333 77.9207 5.09333 78.9341 7.04C79.9741 8.98667 80.4941 11.0533 80.4941 13.24C80.4941 15.6667 79.8541 17.8933 78.5741 19.92C77.2941 21.9467 75.5741 23.5467 73.4141 24.72C71.2807 25.8933 68.9607 26.48 66.4541 26.48ZM67.7741 25.48C69.2674 25.48 70.6007 25.0533 71.7741 24.2C72.9741 23.32 73.9074 22.0533 74.5741 20.4C75.2407 18.72 75.5741 16.72 75.5741 14.4C75.5741 11.9467 75.2007 9.76 74.4541 7.84C73.7074 5.89333 72.6274 4.37333 71.2141 3.28C69.8007 2.18667 68.1474 1.64 66.2541 1.64C63.8274 1.64 61.9607 2.56 60.6541 4.4C59.3474 6.21333 58.6941 8.76 58.6941 12.04C58.6941 14.6267 59.0807 16.9467 59.8541 19C60.6541 21.0267 61.7341 22.6133 63.0941 23.76C64.4807 24.9067 66.0407 25.48 67.7741 25.48ZM108.199 25.52C108.279 25.52 108.319 25.6 108.319 25.76C108.319 25.92 108.279 26 108.199 26H103.719C103.292 26 102.932 26.0133 102.639 26.04C102.346 26.0667 102.106 26.08 101.919 26.08C101.492 26.08 101.119 25.9867 100.799 25.8C100.506 25.5867 100.132 25.2133 99.6791 24.68C99.2524 24.1467 98.4791 23.12 97.3591 21.6C97.2257 21.4133 97.0657 21.2133 96.8791 21C96.7191 20.76 96.5324 20.4933 96.3191 20.2L91.0791 13.16L90.1991 14.04V22.76C90.1991 23.5867 90.2657 24.1867 90.3991 24.56C90.5324 24.9333 90.7857 25.1867 91.1591 25.32C91.5591 25.4533 92.1857 25.52 93.0391 25.52C93.1457 25.52 93.1991 25.6 93.1991 25.76C93.1991 25.92 93.1457 26 93.0391 26C92.1591 26 91.4657 25.9867 90.9591 25.96L87.9591 25.92L84.9991 25.96C84.4657 25.9867 83.7457 26 82.8391 26C82.7857 26 82.7591 25.92 82.7591 25.76C82.7591 25.6 82.7857 25.52 82.8391 25.52C83.6924 25.52 84.3191 25.4533 84.7191 25.32C85.1191 25.1867 85.3857 24.9333 85.5191 24.56C85.6791 24.16 85.7591 23.56 85.7591 22.76V4.24C85.7591 3.44 85.6791 2.85333 85.5191 2.48C85.3857 2.10667 85.1191 1.85333 84.7191 1.72C84.3457 1.56 83.7457 1.48 82.9191 1.48C82.8391 1.48 82.7991 1.4 82.7991 1.24C82.7991 1.08 82.8391 1 82.9191 1L85.0391 1.04C86.2657 1.09333 87.2391 1.12 87.9591 1.12C88.7591 1.12 89.7724 1.09333 90.9991 1.04L93.0391 1C93.1191 1 93.1591 1.08 93.1591 1.24C93.1591 1.4 93.1191 1.48 93.0391 1.48C92.2124 1.48 91.5991 1.56 91.1991 1.72C90.8257 1.88 90.5591 2.16 90.3991 2.56C90.2657 2.93333 90.1991 3.52 90.1991 4.32V12.8L97.7191 5.12C98.4924 4.34667 98.8791 3.64 98.8791 3C98.8791 2.52 98.6657 2.14666 98.2391 1.88C97.8124 1.61333 97.2124 1.48 96.4391 1.48C96.3591 1.48 96.3191 1.4 96.3191 1.24C96.3191 1.08 96.3591 1 96.4391 1L98.3191 1.04C99.4924 1.09333 100.586 1.12 101.599 1.12C102.692 1.12 103.826 1.09333 104.999 1.04L106.799 1C106.879 1 106.919 1.08 106.919 1.24C106.919 1.4 106.879 1.48 106.799 1.48C105.572 1.48 104.226 1.84 102.759 2.56C101.292 3.25333 99.9591 4.18667 98.7591 5.36L94.2391 9.96L100.159 17.96C101.892 20.44 103.186 22.2 104.039 23.24C104.919 24.2533 105.626 24.8933 106.159 25.16C106.692 25.4 107.372 25.52 108.199 25.52ZM144.61 1C144.69 1 144.73 1.08 144.73 1.24C144.73 1.4 144.69 1.48 144.61 1.48C143.703 1.48 142.943 1.68 142.33 2.08C141.743 2.45333 141.223 3.17333 140.77 4.24L131.97 25.96C131.943 26.0667 131.797 26.12 131.53 26.12C131.317 26.12 131.17 26.0667 131.09 25.96L125.85 14.48L121.21 25.96C121.183 26.0667 121.037 26.12 120.77 26.12C120.557 26.12 120.41 26.0667 120.33 25.96L110.45 4.32C109.997 3.28 109.503 2.54667 108.97 2.12C108.463 1.69333 107.797 1.48 106.97 1.48C106.89 1.48 106.85 1.4 106.85 1.24C106.85 1.08 106.89 1 106.97 1L108.69 1.04C109.437 1.09333 109.997 1.12 110.37 1.12C111.143 1.12 112.063 1.09333 113.13 1.04L114.85 1C114.93 1 114.97 1.08 114.97 1.24C114.97 1.4 114.93 1.48 114.85 1.48C114.023 1.48 113.397 1.57333 112.97 1.76C112.543 1.94667 112.33 2.28 112.33 2.76C112.33 3.02667 112.437 3.41333 112.65 3.92L121.49 23L125.37 13.44L121.21 4.32C120.757 3.28 120.263 2.54667 119.73 2.12C119.223 1.69333 118.557 1.48 117.73 1.48C117.65 1.48 117.61 1.4 117.61 1.24C117.61 1.08 117.65 1 117.73 1L119.45 1.04C120.197 1.09333 120.757 1.12 121.13 1.12C121.69 1.12 122.343 1.09333 123.09 1.04L124.21 1C124.29 1 124.33 1.08 124.33 1.24C124.33 1.4 124.29 1.48 124.21 1.48C123.677 1.48 123.303 1.52 123.09 1.6C122.877 1.68 122.77 1.84 122.77 2.08C122.77 2.32 122.983 2.93333 123.41 3.92L126.61 10.8L129.37 4C129.61 3.44 129.73 2.97333 129.73 2.6C129.73 2.2 129.57 1.92 129.25 1.76C128.957 1.57333 128.477 1.48 127.81 1.48C127.757 1.48 127.73 1.4 127.73 1.24C127.73 1.08 127.757 1 127.81 1L128.93 1.04C129.463 1.09333 129.97 1.12 130.45 1.12C130.983 1.12 131.597 1.09333 132.29 1.04L134.01 1C134.063 1 134.09 1.08 134.09 1.24C134.09 1.4 134.063 1.48 134.01 1.48C133.103 1.48 132.343 1.68 131.73 2.08C131.117 2.45333 130.597 3.17333 130.17 4.24L127.09 11.84L132.25 23L139.97 4C140.157 3.6 140.25 3.21333 140.25 2.84C140.25 2.36 139.997 2.01333 139.49 1.8C139.01 1.58667 138.197 1.48 137.05 1.48C136.97 1.48 136.93 1.4 136.93 1.24C136.93 1.08 136.97 1 137.05 1L138.65 1.04C139.557 1.09333 140.357 1.12 141.05 1.12C141.61 1.12 142.237 1.09333 142.93 1.04L144.61 1ZM157.374 26.48C154.894 26.48 152.681 25.9067 150.734 24.76C148.814 23.5867 147.321 22.0133 146.254 20.04C145.214 18.04 144.694 15.8667 144.694 13.52C144.694 10.7733 145.388 8.42667 146.774 6.48C148.161 4.50667 149.934 3.02667 152.094 2.04C154.281 1.05333 156.508 0.559999 158.774 0.559999C161.308 0.559999 163.534 1.16 165.454 2.36C167.374 3.53333 168.841 5.09333 169.854 7.04C170.894 8.98667 171.414 11.0533 171.414 13.24C171.414 15.6667 170.774 17.8933 169.494 19.92C168.214 21.9467 166.494 23.5467 164.334 24.72C162.201 25.8933 159.881 26.48 157.374 26.48ZM158.814 25.68C160.708 25.68 162.414 25.24 163.934 24.36C165.454 23.48 166.654 22.1867 167.534 20.48C168.414 18.7733 168.854 16.7333 168.854 14.36C168.854 11.8533 168.361 9.62667 167.374 7.68C166.414 5.70667 165.041 4.17333 163.254 3.08C161.494 1.98667 159.441 1.44 157.094 1.44C154.001 1.44 151.588 2.4 149.854 4.32C148.121 6.24 147.254 8.85333 147.254 12.16C147.254 14.64 147.734 16.92 148.694 19C149.681 21.0533 151.054 22.68 152.814 23.88C154.574 25.08 156.574 25.68 158.814 25.68ZM199.599 25.52C199.679 25.52 199.719 25.6 199.719 25.76C199.719 25.92 199.679 26 199.599 26H194.959C194.266 26 192.973 24.8533 191.079 22.56C189.186 20.24 186.893 17.04 184.199 12.96C183.399 13.1733 182.586 13.28 181.759 13.28C181.306 13.28 180.733 13.2533 180.039 13.2V22.76C180.039 23.5867 180.119 24.1867 180.279 24.56C180.466 24.9333 180.799 25.1867 181.279 25.32C181.759 25.4533 182.533 25.52 183.599 25.52C183.679 25.52 183.719 25.6 183.719 25.76C183.719 25.92 183.679 26 183.599 26C182.799 26 182.159 25.9867 181.679 25.96L178.959 25.92L176.319 25.96C175.839 25.9867 175.173 26 174.319 26C174.266 26 174.239 25.92 174.239 25.76C174.239 25.6 174.266 25.52 174.319 25.52C175.386 25.52 176.159 25.4533 176.639 25.32C177.146 25.1867 177.493 24.9333 177.679 24.56C177.866 24.16 177.959 23.56 177.959 22.76V4.24C177.959 3.44 177.866 2.85333 177.679 2.48C177.519 2.10667 177.186 1.85333 176.679 1.72C176.199 1.56 175.439 1.48 174.399 1.48C174.319 1.48 174.279 1.4 174.279 1.24C174.279 1.08 174.319 1 174.399 1L176.319 1.04C177.386 1.09333 178.266 1.12 178.959 1.12C179.439 1.12 179.893 1.10667 180.319 1.08C180.746 1.05333 181.119 1.02667 181.439 1C182.266 0.919999 182.999 0.879999 183.639 0.879999C185.746 0.879999 187.359 1.32 188.479 2.2C189.599 3.08 190.159 4.30667 190.159 5.88C190.159 7.16 189.786 8.37333 189.039 9.52C188.293 10.64 187.306 11.5333 186.079 12.2C188.399 15.6133 190.333 18.2667 191.879 20.16C193.426 22.0533 194.799 23.4267 195.999 24.28C197.226 25.1067 198.426 25.52 199.599 25.52ZM180.039 12.24C181.053 12.3467 181.853 12.4 182.439 12.4C184.386 12.4 185.786 12 186.639 11.2C187.493 10.3733 187.919 9.05333 187.919 7.24C187.919 5.21333 187.439 3.73333 186.479 2.8C185.546 1.86667 184.293 1.4 182.719 1.4C181.973 1.4 181.426 1.45333 181.079 1.56C180.733 1.66667 180.466 1.92 180.279 2.32C180.119 2.72 180.039 3.38667 180.039 4.32V12.24ZM226.399 1C226.479 1 226.519 1.08 226.519 1.24C226.519 1.4 226.479 1.48 226.399 1.48C225.252 1.48 224.439 1.76 223.959 2.32C223.506 2.88 223.279 3.84 223.279 5.2V26.44C223.279 26.4933 223.212 26.5333 223.079 26.56C222.946 26.5867 222.852 26.5733 222.799 26.52L204.719 4.28L204.039 3.52V21.84C204.039 23.2 204.266 24.16 204.719 24.72C205.172 25.2533 205.959 25.52 207.079 25.52C207.159 25.52 207.199 25.6 207.199 25.76C207.199 25.92 207.159 26 207.079 26C206.439 26 205.946 25.9867 205.599 25.96L203.679 25.92L201.719 25.96C201.372 25.9867 200.852 26 200.159 26C200.106 26 200.079 25.92 200.079 25.76C200.079 25.6 200.106 25.52 200.159 25.52C201.306 25.52 202.092 25.2533 202.519 24.72C202.946 24.1867 203.159 23.2267 203.159 21.84V2.68C202.226 1.88 201.266 1.48 200.279 1.48C200.199 1.48 200.159 1.4 200.159 1.24C200.159 1.08 200.199 1 200.279 1L201.719 1.04C202.012 1.06667 202.426 1.08 202.959 1.08C203.412 1.08 203.786 1.06667 204.079 1.04C204.372 1.01333 204.599 1 204.759 1C204.946 1 205.092 1.05333 205.199 1.16C205.332 1.24 205.479 1.42667 205.639 1.72C205.932 2.2 206.252 2.65333 206.599 3.08L222.399 22.72V5.2C222.399 3.84 222.186 2.88 221.759 2.32C221.332 1.76 220.559 1.48 219.439 1.48C219.386 1.48 219.359 1.4 219.359 1.24C219.359 1.08 219.386 1 219.439 1L220.959 1.04C221.759 1.09333 222.399 1.12 222.879 1.12C223.332 1.12 223.986 1.09333 224.839 1.04L226.399 1Z" fill="white"/>
</svg>
